HIERARCHY
ROOT Hips
{
	OFFSET 0.000000 0.000000 0.000000
	CHANNELS 6 Xposition Yposition Zposition Zrotation Yrotation Xrotation 
	JOINT LHipJoint
	{
		OFFSET 0.000000 0.000000 0.000000
		CHANNELS 3 Zrotation Yrotation Xrotation
		JOINT LeftUpLeg
		{
			OFFSET 8.178360 -10.767780 5.035740
			CHANNELS 3 Zrotation Yrotation Xrotation
			JOINT LeftLeg
			{
				OFFSET 14.688660 -40.356780 0.000000
				CHANNELS 3 Zrotation Yrotation Xrotation
				JOINT LeftFoot
				{
					OFFSET 15.373200 -42.237540 0.000000
					CHANNELS 3 Zrotation Yrotation Xrotation
					JOINT LeftToeBase
					{
						OFFSET 0.945840 -2.598660 13.935300
						CHANNELS 3 Zrotation Yrotation Xrotation
						End Site
						{
							OFFSET 0.000000 0.000000 0.000000
						}
					}
				}
			}
		}
	}
	JOINT RHipJoint
	{
		OFFSET 0.000000 0.000000 0.000000
		CHANNELS 3 Zrotation Yrotation Xrotation
		JOINT RightUpLeg
		{
			OFFSET -7.833120 -10.767780 5.035740
			CHANNELS 3 Zrotation Yrotation Xrotation
			JOINT RightLeg
			{
				OFFSET -15.255180 -41.913300 0.000000
				CHANNELS 3 Zrotation Yrotation Xrotation
				JOINT RightFoot
				{
					OFFSET -15.409560 -42.337380 0.000000
					CHANNELS 3 Zrotation Yrotation Xrotation
					JOINT RightToeBase
					{
						OFFSET -0.988380 -2.715540 14.178900
						CHANNELS 3 Zrotation Yrotation Xrotation
						End Site
						{
							OFFSET 0.000000 0.000000 0.000000
						}
					}
				}
			}
		}
	}
	JOINT LowerBack
	{
		OFFSET 0.000000 0.000000 0.000000
		CHANNELS 3 Zrotation Yrotation Xrotation
		JOINT Spine
		{
			OFFSET 0.169620 12.213540 -1.160280
			CHANNELS 3 Zrotation Yrotation Xrotation
			JOINT Spine1
			{
				OFFSET 0.340320 12.293100 -0.256500
				CHANNELS 3 Zrotation Yrotation Xrotation
				JOINT Neck
				{
					OFFSET 0.000000 0.000000 0.000000
					CHANNELS 3 Zrotation Yrotation Xrotation
					JOINT Neck1
					{
						OFFSET -0.325020 10.477440 1.032120
						CHANNELS 3 Zrotation Yrotation Xrotation
						JOINT Head
						{
							OFFSET 0.624420 10.568160 -0.743820
							CHANNELS 3 Zrotation Yrotation Xrotation
							End Site
							{
								OFFSET 0.000000 0.000000 0.000000
							}
						}
					}
				}
				JOINT LeftShoulder
				{
					OFFSET 0.000000 0.000000 0.000000
					CHANNELS 3 Zrotation Yrotation Xrotation
					JOINT LeftArm
					{
						OFFSET 20.174460 7.205340 -1.867260
						CHANNELS 3 Zrotation Yrotation Xrotation
						JOINT LeftForeArm
						{
							OFFSET 29.898000 -0.000000 -0.000000
							CHANNELS 3 Zrotation Yrotation Xrotation
							JOINT LeftHand
							{
								OFFSET 20.901360 -0.000000 -0.000000
								CHANNELS 3 Zrotation Yrotation Xrotation
								JOINT LeftFingerBase
								{
									OFFSET 0.000000 0.000000 0.000000
									CHANNELS 3 Zrotation Yrotation Xrotation
									JOINT LeftHandIndex1
									{
										OFFSET 4.291560 -0.000000 -0.000000
										CHANNELS 3 Zrotation Yrotation Xrotation
										End Site
										{
											OFFSET 0.000000 0.000000 0.000000
										}
									}
								}
								JOINT LThumb
								{
									OFFSET 0.000000 0.000000 0.000000
									CHANNELS 3 Zrotation Yrotation Xrotation
									End Site
									{
										OFFSET 0.000000 0.000000 0.000000
									}
								}
							}
						}
					}
				}
				JOINT RightShoulder
				{
					OFFSET 0.000000 0.000000 0.000000
					CHANNELS 3 Zrotation Yrotation Xrotation
					JOINT RightArm
					{
						OFFSET -18.819600 8.244300 -2.427900
						CHANNELS 3 Zrotation Yrotation Xrotation
						JOINT RightForeArm
						{
							OFFSET -31.451400 -0.000000 -0.000000
							CHANNELS 3 Zrotation Yrotation Xrotation
							JOINT RightHand
							{
								OFFSET -20.665020 -0.000000 -0.000000
								CHANNELS 3 Zrotation Yrotation Xrotation
								JOINT RightFingerBase
								{
									OFFSET 0.000000 0.000000 0.000000
									CHANNELS 3 Zrotation Yrotation Xrotation
									JOINT RightHandIndex1
									{
										OFFSET -3.735180 -0.000000 -0.000000
										CHANNELS 3 Zrotation Yrotation Xrotation
										End Site
										{
											OFFSET 0.000000 0.000000 0.000000
										}
									}
								}
								JOINT RThumb
								{
									OFFSET 0.000000 0.000000 0.000000
									CHANNELS 3 Zrotation Yrotation Xrotation
									End Site
									{
										OFFSET 0.000000 0.000000 0.000000
									}
								}
							}
						}
					}
				}
			}
		}
	}
}
MOTION
Frames:	9
Frame Time:	0.0333333
56.934612 106.299090 -182.615868 4.379134 4.427020 2.821794 0.687348 2.625189 2.223135 -27.142560 -2.035280 7.114469 0.435052 6.047567 20.971125 1.552361 -6.498554 2.868269 0.477300 -4.430700 -12.291500 -2.264353 -2.345957 0.515504 16.816386 9.647310 -25.992110 0.106697 -4.990981 13.756939 0.601336 -5.717710 7.390244 -0.233200 3.108300 -8.580400 -4.561141 -1.252341 4.946520 0.726678 -2.121797 -1.197754 5.111155 -0.923210 -1.617375 -6.707538 -3.805931 -12.650423 2.966883 -4.268683 13.135193 2.147100 -2.400000 9.354300 -7.301745 2.621326 -2.292153 -77.757744 -6.234873 23.342341 13.706262 -25.032535 -4.009191 -1.598719 -2.586224 7.291487 20.531312 16.353030 7.482000 -7.125000 0.000000 0.000000 -6.434900 50.376100 -0.855700 6.131864 -2.378179 -2.047268 82.795628 -4.105125 0.402037 -11.860971 18.250437 -2.518388 0.833814 -0.787547 11.328509 -12.420608 11.711127 -2.900900 7.125000 0.000000 0.000000 9.611300 -17.464600 6.374500 
56.596584 106.448508 -178.021854 4.394460 4.490612 1.772656 0.820791 2.634274 2.244990 -27.018693 -2.142563 7.954706 1.092759 7.324197 25.021824 1.528670 -7.032012 7.258617 0.957000 -6.229300 -17.451100 -2.381178 -2.380557 0.596147 17.460838 10.367224 -24.058230 -0.171312 -5.930986 16.887815 -0.551114 -0.745751 11.550944 -0.011500 -0.691700 1.900900 -4.768413 -1.820516 5.667974 0.987781 -2.938730 -1.446794 5.979163 -1.259630 -2.653529 -8.010033 -3.090976 -11.033761 3.190302 -3.076271 13.032340 2.645700 -1.952600 8.924900 -7.372197 2.825672 -2.342549 -78.726753 -3.785063 21.669026 13.458637 -24.601901 -3.595898 -0.848608 -4.208680 6.319810 15.257126 34.319291 9.963300 -7.125000 0.000000 0.000000 -26.782400 67.918300 -15.169700 6.156124 -2.469905 -2.089298 81.645621 -5.824077 0.838153 -11.241244 17.420461 -2.270960 0.844619 -0.941139 12.092679 -12.537890 12.717536 -3.205300 7.125000 0.000000 0.000000 9.479600 -16.303800 6.528100 
56.399400 106.994742 -173.425398 2.269644 4.182021 0.941615 0.924290 2.623216 2.221757 -24.547472 -2.612045 5.897556 2.298066 9.419598 31.603134 1.458979 -5.655797 16.228393 1.026700 -6.445400 -18.082400 -2.475990 -2.479695 0.650372 20.713481 10.656238 -21.611868 -0.441721 -6.395582 18.515142 -0.080951 -3.246539 12.006555 -0.009100 0.616900 -1.695100 -2.397125 -1.764811 5.987811 1.333879 -2.717705 -1.652245 5.668909 -1.078001 -3.569399 -8.089964 -3.026014 -10.008468 2.635870 -2.995540 13.558916 2.447500 -2.011800 8.931000 -7.371366 2.957842 -2.371148 -79.835848 -1.713444 22.678860 13.068155 -24.091069 -3.580928 -1.254982 -3.261565 -0.337791 20.621968 20.635496 9.268300 -7.125000 0.000000 0.000000 -7.923000 55.340100 -2.020400 6.219538 -2.570949 -2.150936 81.210440 -7.203420 -0.014302 -11.045830 17.159676 -2.188663 0.902226 -0.693816 12.542350 -12.752565 10.237874 -2.605100 7.125000 0.000000 0.000000 9.373000 -19.059700 5.877200 
55.965840 107.425242 -168.644004 0.452576 4.465082 0.260034 1.034008 2.571120 2.079187 -21.448540 -2.746111 2.240426 3.904382 11.590246 38.607010 2.208969 -3.655219 28.861490 0.652100 -5.165300 -14.380600 -2.564384 -2.550474 0.687929 23.929931 10.902709 -18.484383 -0.639123 -6.654274 19.714325 -0.089422 -3.178978 12.733035 -0.235700 -3.124300 8.625100 -0.747585 -1.746823 5.521182 1.592379 -2.577390 -1.516906 5.424700 -1.028725 -2.971230 -7.864259 -3.278255 -10.330143 2.414395 -3.348468 13.639123 2.268600 -2.177000 9.017000 -7.396508 3.061694 -2.318783 -80.602922 -1.184067 19.100035 12.497889 -23.172474 -3.170583 -1.155226 -3.656794 6.585543 17.369005 27.136663 9.568000 -7.125000 0.000000 0.000000 -15.959300 61.522100 -6.511000 6.322457 -2.661461 -2.146707 81.184217 -7.242298 -1.101503 -10.877851 16.956964 -2.131137 0.854913 -0.761077 13.263542 -12.427088 10.713686 -2.662800 7.125000 0.000000 0.000000 9.605300 -18.533400 6.140800 
55.662102 107.934120 -164.284530 -0.227246 4.526517 -0.387094 1.203263 2.445986 1.871639 -20.171868 -3.931448 -1.996022 5.896124 13.680312 45.994963 3.615374 -3.204931 38.985989 0.023400 -0.986700 -2.712200 -2.616105 -2.608495 0.754123 25.754708 10.745092 -15.003715 -0.722476 -6.565459 19.894813 0.164874 -3.771741 11.291128 -0.177300 -2.712300 7.478900 -0.163183 -1.578881 6.168965 1.642013 -2.305541 -1.597120 5.225839 -0.859776 -3.475762 -7.977886 -3.249245 -11.010190 2.981365 -3.284617 14.192829 2.525200 -2.116100 9.489800 -7.428187 3.128480 -2.359092 -81.222444 -0.116790 18.507891 12.258693 -22.771846 -3.078205 -1.000149 -3.563253 5.623729 16.202461 25.658292 8.467500 -7.125000 0.000000 0.000000 -16.181800 59.681400 -5.893800 6.309101 -2.633601 -2.204521 81.202882 -7.680095 -0.911775 -11.072261 17.287691 -2.228446 0.775021 -0.801763 12.615463 -11.665117 11.444714 -2.666600 7.125000 0.000000 0.000000 10.168600 -17.774400 6.685500 
55.355916 108.262962 -160.037124 -1.457613 4.532091 -1.065682 1.486956 2.329959 1.626158 -18.420428 -4.251174 -6.450773 7.732430 15.298690 52.978085 2.628370 -4.366294 31.767739 0.270100 -3.343000 -9.235200 -2.735128 -2.682658 0.782878 28.252207 9.969884 -11.166599 -0.668773 -6.144836 19.167691 0.324234 -3.773374 9.376317 -0.094000 -1.977800 5.444400 0.821912 -1.274292 6.128878 1.824472 -1.835447 -1.443642 5.119649 -0.622201 -3.063176 -7.856754 -3.640056 -11.005319 3.030985 -3.840656 13.675123 2.459200 -2.338500 9.276500 -7.493833 3.206885 -2.296806 -81.689507 0.503770 19.748040 11.384396 -21.399116 -2.663473 -0.965017 -3.458739 4.826027 15.823387 24.003284 7.825100 -7.125000 0.000000 0.000000 -15.422700 57.881300 -4.939700 6.408442 -2.634400 -2.156478 80.797822 -6.814445 -0.911821 -10.974070 17.106435 -2.170768 0.849297 -0.851724 12.407437 -12.391263 11.752530 -2.922200 7.125000 0.000000 0.000000 9.602400 -17.381800 6.386100 
55.079742 108.561192 -156.057936 -1.865236 4.404723 -1.076945 1.676117 2.203087 1.431997 -17.507493 -4.148123 -11.626026 9.303116 16.453208 57.972965 1.672569 -1.967953 25.177277 0.018900 -0.887800 -2.440200 -2.803627 -2.735732 0.843121 29.585607 9.317910 -8.258758 -0.614364 -5.786232 18.470533 0.528309 -4.187437 7.429423 -0.225800 -3.058800 8.442500 0.974332 -1.185237 5.967341 1.910533 -1.733446 -1.591818 5.221577 -0.511486 -3.444278 -7.946292 -3.525326 -10.048062 3.174271 -3.735350 13.416534 2.556000 -2.287100 8.940600 -7.538293 3.305416 -2.303809 -82.414204 2.120183 17.905098 10.913979 -20.677657 -2.472032 -1.042129 -3.234045 8.456842 14.710413 22.345999 6.777800 -7.125000 0.000000 0.000000 -15.647200 55.846600 -4.238400 6.434870 -2.624657 -2.141920 80.373554 -6.193275 -0.702380 -10.990696 17.091024 -2.182598 0.775367 -0.667611 13.040649 -11.636854 10.001405 -2.311400 7.125000 0.000000 0.000000 10.253400 -19.364100 6.375900 
55.028910 108.569148 -152.201220 -2.104530 3.200668 -1.587491 1.793575 2.112878 1.273350 -17.159593 -3.143712 -15.702085 10.025120 16.989903 60.051223 0.489548 1.227064 16.267185 0.140300 -2.413700 -6.650400 -2.844050 -2.779362 0.864043 30.521502 8.726508 -5.098814 -0.599793 -5.570523 18.197254 0.498575 -3.607539 5.632155 -0.175300 -2.697000 7.436400 1.390592 -0.509708 6.156304 1.810065 -0.811142 -1.479806 4.687227 -0.046094 -3.266216 -7.991421 -3.651419 -10.587144 3.513008 -3.903244 13.986299 2.694000 -2.345800 9.346100 -7.619876 3.340700 -2.315525 -82.946819 3.048401 16.572359 10.498470 -19.967586 -2.245738 -1.468818 -2.983473 12.535798 16.710096 20.805993 7.344400 -7.125000 0.000000 0.000000 -12.538500 54.646800 -3.006900 6.476985 -2.582709 -2.092464 80.328799 -4.700867 -0.787722 -10.713986 16.573905 -2.028920 0.942565 -1.047488 10.963164 -13.282422 13.397062 -3.606600 7.125000 0.000000 0.000000 8.898200 -15.451500 6.283200 
55.043610 108.427692 -148.460244 -2.247461 2.198313 -1.591850 1.848303 1.977066 1.146093 -16.902891 -2.981324 -19.818562 9.927541 17.144678 59.768438 -0.000788 2.511523 11.563603 0.089200 -1.926300 -5.301900 -2.857523 -2.787730 0.892141 31.047188 7.822437 -3.263651 -0.647461 -5.576195 18.476796 0.350699 -2.633077 3.763574 -0.153000 -2.520700 6.947100 1.898620 -0.051675 5.947344 1.680543 -0.194409 -1.506788 3.937163 0.291581 -3.326640 -7.934680 -3.591843 -10.291576 3.819032 -3.887010 14.156727 2.847500 -2.317400 9.372300 -7.655663 3.418383 -2.323895 -83.131422 4.612664 16.436477 10.001545 -19.143003 -1.976680 -1.290737 -3.257152 10.838324 15.793896 22.807656 7.471100 -7.125000 0.000000 0.000000 -14.733500 56.627600 -4.263800 6.327706 -2.556603 -2.139067 80.391674 -4.165020 1.847485 -11.814211 18.313658 -2.545409 0.719804 -0.824682 10.841021 -11.278911 12.276462 -2.754900 7.125000 0.000000 0.000000 10.461800 -16.904000 7.087800 
